<svg width="42" height="53" viewBox="0 0 42 53" fill="none" xmlns="http://www.w3.org/2000/svg">
<path d="M19.7565 39.2662C19.8552 39.2486 19.9386 39.1829 19.9788 39.0911L21.7337 35.081C21.8584 34.7961 22.2809 34.8658 22.3075 35.1757L22.6786 39.511C22.6871 39.6108 22.745 39.6998 22.8328 39.7482L25.3632 41.1411C25.5977 41.2702 25.5586 41.6184 25.3014 41.6923L22.3473 42.5406C22.2607 42.5655 22.1899 42.628 22.1544 42.7108L20.3684 46.8792C20.2449 47.1673 19.8178 47.0969 19.7935 46.7843L19.4442 42.2954C19.4369 42.202 19.3864 42.1174 19.3077 42.0666L16.6419 40.3478C16.4127 40.2 16.4835 39.848 16.7519 39.8003L19.7565 39.2662Z" fill="white" fill-opacity="0.5"/>
</svg>
