<svg width="42" height="53" viewBox="0 0 42 53" fill="none" xmlns="http://www.w3.org/2000/svg">
<path d="M10.3008 16.955C10.3609 16.8866 10.3868 16.7946 10.371 16.7049L9.24509 10.2954C9.18989 9.98118 9.59831 9.80939 9.78431 10.0686L13.3499 15.0377C13.4127 15.1252 13.5177 15.1724 13.6248 15.1611L17.3393 14.7725C17.5961 14.7456 17.7647 15.0343 17.615 15.2448L15.0749 18.8163C15.0279 18.8823 15.0097 18.9644 15.0242 19.044L16.2327 25.663C16.2904 25.9791 15.8779 26.1524 15.6925 25.89L12.0382 20.7177C11.9805 20.636 11.8859 20.5885 11.786 20.5909L7.68528 20.6899C7.42378 20.6962 7.28002 20.3882 7.45281 20.1918L10.3008 16.955Z" fill="white" fill-opacity="0.5"/>
<path d="M19.9189 7.8095C19.9991 7.75492 20.0479 7.66499 20.05 7.56807L20.1002 5.25047C20.1071 4.93514 20.5335 4.84259 20.6704 5.12671L21.6418 7.1422C21.6864 7.23456 21.775 7.2978 21.8768 7.30986L23.3159 7.48037C23.5761 7.51121 23.6745 7.83753 23.4746 8.00707L22.2186 9.07246C22.1526 9.12848 22.114 9.2103 22.1127 9.2969L22.0778 11.7077C22.0732 12.0254 21.6425 12.1189 21.5066 11.8316L20.5129 9.72993C20.4721 9.64363 20.3926 9.5819 20.2989 9.56368L18.7063 9.25407C18.4446 9.20319 18.3743 8.86174 18.5947 8.71165L19.9189 7.8095Z" fill="white" fill-opacity="0.5"/>
</svg>
